<svg xmlns="http://www.w3.org/2000/svg" version="1.1"
     width="400.00" height="400.00" stroke="gray" fill="lightgray" fill-opacity="0.4" stroke-opacity="0.4">
<!--<circle cx="120.00" cy="120.00" r="100.00" fill-opacity="0.2"/>-->
<polygon id="gear0" stroke="black" fill="gray" points=" 234.61 120.00 234.41 126.72 204.42 132.83 202.34 142.62 227.25 160.40 224.70 166.62 221.79 172.67 191.91 166.06 186.02 174.15 201.55 200.53 196.69 205.17 191.56 209.52 166.96 191.32 158.29 196.33 161.74 226.74 155.42 229.00 148.97 230.89 133.89 204.26 123.93 205.30 114.72 234.49 108.02 233.98 101.36 233.08 98.42 202.62 88.90 199.53 68.61 222.44 62.70 219.25 56.98 215.72 66.68 186.70 59.24 180.00 31.39 192.68 27.28 187.36 23.49 181.81 44.16 159.24 40.09 150.10 9.49 150.36 7.90 143.83 6.69 137.22 34.75 125.00 34.75 115.00 6.69 102.78 7.90 96.17 9.49 89.64 40.09 89.90 44.16 80.76 23.49 58.19 27.28 52.64 31.39 47.32 59.24 60.00 66.68 53.30 56.98 24.28 62.70 20.75 68.61 17.56 88.90 40.47 98.42 37.38 101.36 6.92 108.02 6.02 114.72 5.51 123.93 34.70 133.89 35.74 148.97 9.11 155.42 11.00 161.74 13.26 158.29 43.67 166.96 48.68 191.56 30.48 196.69 34.83 201.55 39.47 186.02 65.85 191.91 73.94 221.79 67.33 224.70 73.38 227.25 79.60 202.34 97.38 204.42 107.17 234.41 113.28">
<animateTransform attributeName="transform" type="rotate" begin="0.00s" dur="15.00s" from="0.00 120.00 120.00" to="360.00 120.00 120.00" repeatCount="indefinite"/></polygon>
<polygon id="gear1" stroke="black" fill="gray" points=" 368.51 144.91 366.02 151.55 335.91 146.44 330.61 153.74 344.77 180.80 339.22 185.21 333.31 189.12 311.96 167.29 303.37 170.08 298.92 200.30 291.84 200.61 284.76 200.30 280.32 170.08 271.73 167.29 250.38 189.12 244.46 185.21 238.92 180.80 253.08 153.74 247.77 146.44 217.67 151.55 215.18 144.91 213.29 138.08 240.65 124.51 240.65 115.49 213.29 101.92 215.18 95.09 217.67 88.45 247.77 93.56 253.08 86.26 238.92 59.20 244.46 54.79 250.38 50.88 271.73 72.71 280.32 69.92 284.76 39.70 291.84 39.39 298.92 39.70 303.37 69.92 311.96 72.71 333.31 50.88 339.22 54.79 344.77 59.20 330.61 86.26 335.91 93.56 366.02 88.45 368.51 95.09 370.40 101.92 343.04 115.49 343.04 124.51 370.40 138.08">
<animateTransform attributeName="transform" type="rotate" begin="0.00s" dur="10.00s" from="360.00 291.84 120.00" to="0.00 291.84 120.00" repeatCount="indefinite"/></polygon>
<polygon id="gear2" stroke="black" fill="gray" points=" 349.80 120.00 349.35 127.20 324.16 130.72 320.51 138.36 333.63 160.15 328.31 165.04 322.43 169.22 303.84 151.86 295.61 153.84 286.93 177.74 279.79 176.69 272.84 174.75 274.63 149.38 267.92 144.23 243.88 152.52 240.21 146.31 237.34 139.69 258.18 125.11 257.96 116.65 236.38 103.19 238.90 96.43 242.24 90.03 266.68 97.06 273.12 91.56 270.00 66.32 276.84 64.02 283.92 62.59 293.84 86.01 302.16 87.55 319.82 69.25 325.91 73.12 331.47 77.71 319.51 100.16 323.55 107.60 348.89 109.80">
<animateTransform attributeName="transform" type="rotate" begin="0.00s" dur="10.00s" from="360.00 291.84 120.00" to="0.00 291.84 120.00" repeatCount="indefinite"/></polygon>
<polygon id="gear3" stroke="black" fill="gray" points=" 344.37 241.27 340.91 247.61 316.60 240.16 310.07 245.54 312.74 270.83 305.86 273.01 298.77 274.32 289.25 250.73 280.96 249.04 262.99 267.04 256.97 263.06 251.48 258.37 263.83 236.13 259.92 228.63 234.63 225.99 233.93 218.80 234.12 211.59 259.17 207.19 262.55 199.43 248.68 178.11 253.82 173.04 259.55 168.66 278.74 185.36 286.89 183.09 294.73 158.90 301.91 159.71 308.92 161.40 308.02 186.82 314.91 191.73 338.64 182.60 342.53 188.69 345.63 195.20 325.31 210.49 325.82 218.94 347.86 231.64">
<animateTransform attributeName="transform" type="rotate" begin="-0.11s" dur="10.00s" from="0.00 291.84 216.78" to="360.00 291.84 216.78" repeatCount="indefinite"/>
</polygon>
</svg>
